<?xml version="1.0" standalone="no"?><!DOCTYPE svg PUBLIC "-//W3C//DTD SVG 1.1//EN" "http://www.w3.org/Graphics/SVG/1.1/DTD/svg11.dtd"><svg t="1682562653050" class="icon" viewBox="0 0 1024 1024" version="1.1" xmlns="http://www.w3.org/2000/svg" p-id="1492" xmlns:xlink="http://www.w3.org/1999/xlink" width="200" height="200"><path d="M511.922 736.246391c-105.139857 5.533992-199.21373-77.471895-204.746722-182.611753v-370.759496C312.708271 77.735284 406.782143-5.271603 511.922 0.26239 617.062857-5.271603 711.13573 77.734284 716.669722 182.875142v370.759496c-5.533992 105.139857-99.606865 188.145745-204.747722 182.611753z" fill="black" p-id="1493"></path><path d="M500.855015 841.387248c-154.94379 0-287.753609-127.275827-293.286602-287.75261V476.160744c0-16.599977 11.066985-27.667962 27.667963-27.667963s27.668962 11.066985 27.668962 27.667963v77.472894c5.533992 132.80882 116.207842 237.949677 249.016662 232.415685 132.80982 5.533992 243.483669-99.606865 249.017662-232.415685v-71.938902c0-16.600977 11.066985-27.667962 27.668963-27.667962s27.667962 11.066985 27.667962 27.667962v71.938902C810.742594 719.645413 672.399782 846.92024 511.922 841.387248h-11.066985z" fill="black" p-id="1494"></path><path d="M511.922 1024c-16.599977 0-27.667962-11.066985-27.667962-27.668962V813.720285c0-16.601977 11.066985-27.669962 27.667962-27.669962s27.668962 11.067985 27.668963 27.669962V996.330038c0 16.601977-11.066985 27.668962-27.668963 27.668962z" fill="black" p-id="1495"></path><path d="M733.2707 1024H290.573301c-16.599977 0-27.667962-11.066985-27.667963-27.668962s11.066985-27.667962 27.667963-27.667963h442.697399c16.600977 0 27.668962 11.066985 27.668962 27.667963S749.871677 1024 733.2697 1024z" fill="black" p-id="1496"></path></svg>