<svg t="1682563548058" class="icon" viewBox="0 0 1024 1024" version="1.1" xmlns="http://www.w3.org/2000/svg" p-id="6287" width="200" height="200"><path d="M896 693V252.2c0-39.8-31.1-72.1-69.5-72.1h-629c-38.3 0-69.5 32.2-69.5 72.1v349.9l57-60.4c24.8-26.1 56.5-44.7 91.3-50.4 61-10.1 120.5 16.6 155.3 66.7l48.6 69.9c27.7 39.6 80.7 49.6 119.9 22.4l26.6-18.3c52.8-36.4 121.4-37 174.9-1.6L896 693z m0 78.7l-128.7-85.5c-32.1-21.3-73.3-20.8-105.1 1l-26.4 18.3c-68 46.9-159.5 29.8-207.3-38.9l-48.6-69.8c-16.6-23.9-42.4-38.9-70.7-41.1-28.3-2.1-56 8.7-75.8 29.6L127.9 697v74.7c0 39.8 31.1 72.1 69.5 72.1h629.1c38.4 0 69.5-32.3 69.5-72.1z m-69.5-657.9c73.8 0 133.5 61.9 133.5 138.4v519.5c0 76.5-59.7 138.5-133.5 138.5h-629c-73.8 0-133.5-62-133.5-138.5V252.2c0-76.5 59.7-138.4 133.5-138.4h629z m-106.6 365c-61.8 0-112-51.9-112-116.1 0-64.2 50.2-116.2 112-116.2 61.9 0 112 52 112 116.2s-50.1 116.1-112 116.1z m0-66.4c26.6 0 48-22.3 48-49.8 0-27.5-21.4-49.8-48-49.8-26.5 0-48 22.3-48 49.8 0.1 27.5 21.6 49.8 48 49.8z" fill="#5D5D5D" p-id="6288"></path></svg>